<svg width="91" height="90" viewBox="0 0 91 90" fill="none" xmlns="http://www.w3.org/2000/svg">
<circle cx="45.4737" cy="45" r="41.7368" stroke="black" stroke-width="6"/>
<path d="M39.6555 54.2853V53.5126C39.6707 50.8611 39.9055 48.7474 40.3601 47.1717C40.8298 45.5959 41.5116 44.3232 42.4055 43.3535C43.2995 42.3838 44.3752 41.505 45.6328 40.7171C46.5722 40.1111 47.4131 39.4823 48.1555 38.8308C48.8979 38.1793 49.4888 37.4596 49.9282 36.6717C50.3676 35.8687 50.5873 34.9747 50.5873 33.9899C50.5873 32.9444 50.3373 32.0277 49.8373 31.2399C49.3373 30.452 48.6631 29.8459 47.8146 29.4217C46.9813 28.9974 46.057 28.7853 45.0419 28.7853C44.057 28.7853 43.1252 29.005 42.2464 29.4444C41.3676 29.8687 40.6479 30.505 40.0873 31.3535C39.5267 32.1868 39.2237 33.2247 39.1782 34.4671H29.9055C29.9813 31.4368 30.7085 28.9368 32.0873 26.9671C33.4661 24.9823 35.2919 23.505 37.5646 22.5353C39.8373 21.5505 42.3449 21.058 45.0873 21.058C48.1025 21.058 50.7691 21.558 53.0873 22.558C55.4055 23.5429 57.2237 24.9747 58.5419 26.8535C59.8601 28.7323 60.5191 30.9974 60.5191 33.649C60.5191 35.4217 60.2237 36.9974 59.6328 38.3762C59.057 39.7399 58.2464 40.952 57.201 42.0126C56.1555 43.058 54.9207 44.005 53.4964 44.8535C52.2995 45.5656 51.3146 46.308 50.5419 47.0808C49.7843 47.8535 49.2161 48.7474 48.8373 49.7626C48.4737 50.7777 48.2843 52.0277 48.2691 53.5126V54.2853H39.6555ZM44.1555 68.8308C42.6404 68.8308 41.3449 68.3005 40.2691 67.2399C39.2085 66.1641 38.6858 64.8762 38.701 63.3762C38.6858 61.8914 39.2085 60.6187 40.2691 59.5581C41.3449 58.4974 42.6404 57.9671 44.1555 57.9671C45.5949 57.9671 46.8601 58.4974 47.951 59.5581C49.0419 60.6187 49.5949 61.8914 49.6101 63.3762C49.5949 64.3762 49.3298 65.2929 48.8146 66.1262C48.3146 66.9444 47.6555 67.6035 46.8373 68.1035C46.0191 68.5884 45.1252 68.8308 44.1555 68.8308Z" fill="black"/>
</svg>
