<svg width="470" height="390" viewBox="0 0 470 390" fill="none" xmlns="http://www.w3.org/2000/svg">
<mask id="path-1-outside-1_1_278" maskUnits="userSpaceOnUse" x="163.581" y="22.459" width="144" height="141" fill="black">
<rect fill="white" x="163.581" y="22.459" width="144" height="141"/>
<path d="M198.977 71.699H259.649V75.4109H200.129L198.977 71.699ZM176.065 103.699H271.425L279.617 93.075C279.617 93.075 288.833 100.243 294.337 105.235C293.953 106.643 292.673 107.283 290.881 107.283H177.089L176.065 103.699ZM226.881 87.955L246.849 89.747C246.593 91.667 245.313 92.691 242.369 93.075V135.187C242.369 145.555 239.809 151.443 221.121 153.107C220.481 148.243 219.713 144.915 217.153 142.611C214.593 140.307 211.265 138.515 203.457 137.235V135.571C203.457 135.571 220.865 136.723 223.937 136.723C226.241 136.723 226.881 136.083 226.881 134.291V87.955ZM191.681 53.0109H281.281V56.5949H191.681V53.0109ZM226.881 32.7869L247.105 34.323C246.849 36.115 245.825 37.395 242.369 37.907V55.187H226.881V32.7869ZM191.041 43.155H192.705C198.849 58.3869 196.033 69.5229 190.529 74.131C186.689 77.587 179.649 76.6909 177.473 71.571C175.681 66.835 178.241 62.867 182.337 60.563C186.433 57.6189 191.425 50.323 191.041 43.155ZM274.497 53.0109H273.089L280.897 45.2029L294.465 58.003C293.441 59.0269 292.161 59.4109 289.473 59.5389C284.481 63.251 276.033 67.8589 269.761 70.2909L268.609 69.5229C270.657 64.9149 273.345 57.363 274.497 53.0109ZM253.761 71.699H252.225L260.289 63.6349L274.241 75.795C273.217 76.819 271.809 77.2029 269.121 77.459C260.289 82.963 248.513 89.235 237.505 92.563H235.585C242.369 87.443 250.177 77.3309 253.761 71.699Z"/>
</mask>
<path d="M198.977 71.699H259.649V75.4109H200.129L198.977 71.699ZM176.065 103.699H271.425L279.617 93.075C279.617 93.075 288.833 100.243 294.337 105.235C293.953 106.643 292.673 107.283 290.881 107.283H177.089L176.065 103.699ZM226.881 87.955L246.849 89.747C246.593 91.667 245.313 92.691 242.369 93.075V135.187C242.369 145.555 239.809 151.443 221.121 153.107C220.481 148.243 219.713 144.915 217.153 142.611C214.593 140.307 211.265 138.515 203.457 137.235V135.571C203.457 135.571 220.865 136.723 223.937 136.723C226.241 136.723 226.881 136.083 226.881 134.291V87.955ZM191.681 53.0109H281.281V56.5949H191.681V53.0109ZM226.881 32.7869L247.105 34.323C246.849 36.115 245.825 37.395 242.369 37.907V55.187H226.881V32.7869ZM191.041 43.155H192.705C198.849 58.3869 196.033 69.5229 190.529 74.131C186.689 77.587 179.649 76.6909 177.473 71.571C175.681 66.835 178.241 62.867 182.337 60.563C186.433 57.6189 191.425 50.323 191.041 43.155ZM274.497 53.0109H273.089L280.897 45.2029L294.465 58.003C293.441 59.0269 292.161 59.4109 289.473 59.5389C284.481 63.251 276.033 67.8589 269.761 70.2909L268.609 69.5229C270.657 64.9149 273.345 57.363 274.497 53.0109ZM253.761 71.699H252.225L260.289 63.6349L274.241 75.795C273.217 76.819 271.809 77.2029 269.121 77.459C260.289 82.963 248.513 89.235 237.505 92.563H235.585C242.369 87.443 250.177 77.3309 253.761 71.699Z" fill="url(#paint0_linear_1_278)"/>
<path d="M198.977 71.699V62.699H186.761L190.382 74.3665L198.977 71.699ZM259.649 71.699H268.649V62.699H259.649V71.699ZM259.649 75.4109V84.4109H268.649V75.4109H259.649ZM200.129 75.4109L191.534 78.0785L193.499 84.4109H200.129V75.4109ZM176.065 103.699V94.699H164.134L167.411 106.171L176.065 103.699ZM271.425 103.699V112.699H275.85L278.552 109.195L271.425 103.699ZM279.617 93.075L285.143 85.9708L278.009 80.4222L272.49 87.5793L279.617 93.075ZM294.337 105.235L303.02 107.603L304.472 102.277L300.383 98.5685L294.337 105.235ZM177.089 107.283L168.435 109.755L170.3 116.283H177.089V107.283ZM226.881 87.955L227.686 78.991L217.881 78.1111V87.955H226.881ZM246.849 89.747L255.77 90.9364L257.012 81.6228L247.654 80.783L246.849 89.747ZM242.369 93.075L241.205 84.1505L233.369 85.1726V93.075H242.369ZM221.121 153.107L212.198 154.281L213.324 162.837L221.919 162.071L221.121 153.107ZM217.153 142.611L223.174 135.921L223.174 135.921L217.153 142.611ZM203.457 137.235H194.457V144.88L202.001 146.116L203.457 137.235ZM203.457 135.571L204.051 126.591L194.457 125.956V135.571H203.457ZM191.681 53.0109V44.0109H182.681V53.0109H191.681ZM281.281 53.0109H290.281V44.0109H281.281V53.0109ZM281.281 56.5949V65.5949H290.281V56.5949H281.281ZM191.681 56.5949H182.681V65.5949H191.681V56.5949ZM226.881 32.7869L227.563 23.8128L217.881 23.0775V32.7869H226.881ZM247.105 34.323L256.015 35.5957L257.374 26.077L247.787 25.3488L247.105 34.323ZM242.369 37.907L241.05 29.0041L233.369 30.1421V37.907H242.369ZM242.369 55.187V64.187H251.369V55.187H242.369ZM226.881 55.187H217.881V64.187H226.881V55.187ZM191.041 43.155V34.155H181.546L182.054 43.6364L191.041 43.155ZM192.705 43.155L201.052 39.7883L198.779 34.155H192.705V43.155ZM190.529 74.131L184.752 67.2301L184.628 67.3335L184.508 67.4413L190.529 74.131ZM177.473 71.571L169.056 74.756L169.119 74.925L169.19 75.0912L177.473 71.571ZM182.337 60.563L186.749 68.4071L187.185 68.1624L187.59 67.8711L182.337 60.563ZM274.497 53.0109L283.197 55.314L286.189 44.0109H274.497V53.0109ZM273.089 53.0109L266.725 46.647L251.361 62.0109H273.089V53.0109ZM280.897 45.2029L287.073 38.6564L280.714 32.6577L274.533 38.839L280.897 45.2029ZM294.465 58.003L300.829 64.3669L307.381 57.8149L300.641 51.4564L294.465 58.003ZM289.473 59.5389L289.045 50.5491L286.304 50.6796L284.103 52.3168L289.473 59.5389ZM269.761 70.2909L264.769 77.7794L268.657 80.3718L273.015 78.6822L269.761 70.2909ZM268.609 69.5229L260.385 65.8677L257.303 72.8021L263.617 77.0114L268.609 69.5229ZM253.761 71.699L261.354 76.5308L270.156 62.699H253.761V71.699ZM252.225 71.699L245.861 65.335L230.497 80.699H252.225V71.699ZM260.289 63.6349L266.202 56.8502L259.867 51.3288L253.925 57.271L260.289 63.6349ZM274.241 75.795L280.605 82.1589L287.421 75.3432L280.154 69.0102L274.241 75.795ZM269.121 77.459L268.268 68.4995L266.159 68.7003L264.361 69.8208L269.121 77.459ZM237.505 92.563V101.563H238.836L240.11 101.178L237.505 92.563ZM235.585 92.563L230.163 85.3792L208.72 101.563H235.585V92.563ZM198.977 80.699H259.649V62.699H198.977V80.699ZM250.649 71.699V75.4109H268.649V71.699H250.649ZM259.649 66.4109H200.129V84.4109H259.649V66.4109ZM208.725 72.7434L207.573 69.0314L190.382 74.3665L191.534 78.0785L208.725 72.7434ZM176.065 112.699H271.425V94.699H176.065V112.699ZM278.552 109.195L286.744 98.5706L272.49 87.5793L264.298 98.2033L278.552 109.195ZM279.617 93.075C274.092 100.179 274.092 100.179 274.091 100.179C274.091 100.179 274.091 100.179 274.091 100.179C274.091 100.179 274.092 100.179 274.092 100.179C274.093 100.18 274.094 100.181 274.096 100.182C274.099 100.185 274.105 100.189 274.113 100.196C274.129 100.208 274.153 100.227 274.185 100.252C274.25 100.303 274.348 100.379 274.475 100.479C274.729 100.678 275.102 100.97 275.566 101.337C276.497 102.071 277.794 103.102 279.259 104.285C282.227 106.682 285.74 109.588 288.291 111.901L300.383 98.5685C297.431 95.8903 293.583 92.7163 290.567 90.2808C289.04 89.0476 287.69 87.9745 286.72 87.209C286.235 86.8259 285.844 86.5191 285.573 86.3067C285.437 86.2005 285.331 86.1179 285.259 86.0612C285.222 86.0328 285.194 86.0109 285.175 85.9957C285.165 85.9882 285.157 85.9823 285.152 85.9781C285.149 85.976 285.147 85.9744 285.146 85.9731C285.145 85.9725 285.144 85.972 285.144 85.9716C285.143 85.9714 285.143 85.9712 285.143 85.9711C285.143 85.9709 285.143 85.9708 279.617 93.075ZM285.654 102.867C286.106 101.211 287.247 99.7817 288.695 98.9598C289.897 98.2775 290.818 98.283 290.881 98.283V116.283C292.736 116.283 295.194 115.968 297.58 114.614C300.212 113.12 302.184 110.667 303.02 107.603L285.654 102.867ZM290.881 98.283H177.089V116.283H290.881V98.283ZM185.743 104.81L184.719 101.226L167.411 106.171L168.435 109.755L185.743 104.81ZM226.077 96.9189L246.045 98.7109L247.654 80.783L227.686 78.991L226.077 96.9189ZM237.928 88.5575C237.98 88.1655 238.129 87.4956 238.546 86.7282C238.98 85.9291 239.567 85.278 240.192 84.8061C241.285 83.9801 242.035 84.0423 241.205 84.1505L243.533 101.999C245.647 101.724 248.509 101.082 251.043 99.1678C253.988 96.9422 255.379 93.8703 255.77 90.9364L237.928 88.5575ZM233.369 93.075V135.187H251.369V93.075H233.369ZM233.369 135.187C233.369 140.054 232.63 140.806 232.389 141.047C231.795 141.641 229.302 143.343 220.323 144.142L221.919 162.071C231.628 161.207 239.759 159.133 245.117 153.775C250.828 148.064 251.369 140.688 251.369 135.187H233.369ZM230.044 151.933C229.435 147.301 228.483 140.699 223.174 135.921L211.132 149.301C211.133 149.301 211.125 149.294 211.116 149.282C211.106 149.271 211.107 149.27 211.117 149.286C211.137 149.318 211.223 149.465 211.343 149.816C211.623 150.633 211.887 151.915 212.198 154.281L230.044 151.933ZM223.174 135.921C218.915 132.089 213.764 129.805 204.913 128.354L202.001 146.116C205.487 146.688 207.525 147.305 208.781 147.834C209.905 148.307 210.534 148.762 211.132 149.301L223.174 135.921ZM212.457 137.235V135.571H194.457V137.235H212.457ZM203.457 135.571C202.863 144.551 202.863 144.551 202.863 144.551C202.863 144.551 202.864 144.551 202.864 144.551C202.864 144.551 202.865 144.551 202.866 144.552C202.869 144.552 202.872 144.552 202.876 144.552C202.885 144.553 202.898 144.554 202.915 144.555C202.948 144.557 202.998 144.56 203.063 144.564C203.192 144.573 203.382 144.585 203.624 144.601C204.109 144.633 204.804 144.678 205.648 144.732C207.334 144.841 209.617 144.986 211.999 145.13C216.559 145.408 222.051 145.723 223.937 145.723V127.723C222.751 127.723 218.003 127.462 213.091 127.164C210.737 127.02 208.476 126.877 206.802 126.769C205.966 126.716 205.277 126.671 204.798 126.64C204.558 126.624 204.371 126.612 204.244 126.603C204.181 126.599 204.132 126.596 204.1 126.594C204.084 126.593 204.071 126.592 204.063 126.591C204.059 126.591 204.056 126.591 204.054 126.591C204.053 126.591 204.052 126.591 204.052 126.591C204.052 126.591 204.052 126.591 204.051 126.591C204.051 126.591 204.051 126.591 203.457 135.571ZM223.937 145.723C225.304 145.723 229.019 145.679 232.13 143.012C235.707 139.946 235.881 135.816 235.881 134.291H217.881C217.881 134.257 217.882 134.105 217.909 133.869C217.937 133.634 217.998 133.252 218.143 132.78C218.462 131.744 219.143 130.437 220.416 129.346C221.61 128.322 222.785 127.954 223.359 127.822C223.893 127.7 224.166 127.723 223.937 127.723V145.723ZM235.881 134.291V87.955H217.881V134.291H235.881ZM191.681 62.0109H281.281V44.0109H191.681V62.0109ZM272.281 53.0109V56.5949H290.281V53.0109H272.281ZM281.281 47.5949H191.681V65.5949H281.281V47.5949ZM200.681 56.5949V53.0109H182.681V56.5949H200.681ZM226.2 41.7611L246.424 43.2971L247.787 25.3488L227.563 23.8128L226.2 41.7611ZM238.196 33.0502C238.227 32.827 238.33 32.2844 238.66 31.6102C239.012 30.89 239.52 30.2339 240.13 29.7187C241.237 28.7839 242.017 28.8609 241.05 29.0041L243.688 46.8098C246.178 46.441 249.197 45.622 251.744 43.4712C254.613 41.0485 255.672 37.9923 256.015 35.5957L238.196 33.0502ZM233.369 37.907V55.187H251.369V37.907H233.369ZM242.369 46.187H226.881V64.187H242.369V46.187ZM235.881 55.187V32.7869H217.881V55.187H235.881ZM191.041 52.155H192.705V34.155H191.041V52.155ZM184.359 46.5216C189.809 60.0343 185.948 66.2285 184.752 67.2301L196.307 81.0318C206.118 72.8174 207.889 56.7396 201.052 39.7883L184.359 46.5216ZM184.508 67.4413C184.713 67.257 184.873 67.2084 184.903 67.2005C184.921 67.1958 184.924 67.1969 184.915 67.1973C184.905 67.1977 184.9 67.1967 184.902 67.1972C184.905 67.1976 184.931 67.2022 184.979 67.2219C185.027 67.2419 185.106 67.2807 185.202 67.3512C185.421 67.5108 185.634 67.7638 185.756 68.0507L169.19 75.0912C171.673 80.933 176.86 84.0782 181.852 84.9367C186.729 85.7756 192.33 84.6183 196.55 80.8206L184.508 67.4413ZM185.891 68.3859C185.849 68.2754 185.902 68.3691 185.891 68.6122C185.879 68.8534 185.812 69.0483 185.761 69.1523C185.718 69.2384 185.726 69.1839 185.887 69.026C186.05 68.8667 186.329 68.6439 186.749 68.4071L177.925 52.7188C174.738 54.5114 171.562 57.2682 169.634 61.1576C167.59 65.2807 167.278 70.0593 169.056 74.756L185.891 68.3859ZM187.59 67.8711C190.889 65.5 193.995 61.8577 196.24 57.8068C198.499 53.7331 200.337 48.4311 200.028 42.6735L182.054 43.6364C182.13 45.0469 181.663 46.9768 180.498 49.0791C179.32 51.2042 177.881 52.6819 177.084 53.2548L187.59 67.8711ZM274.497 44.0109H273.089V62.0109H274.497V44.0109ZM279.453 59.3749L287.261 51.5669L274.533 38.839L266.725 46.647L279.453 59.3749ZM274.721 51.7495L288.289 64.5495L300.641 51.4564L287.073 38.6564L274.721 51.7495ZM288.101 51.639C288.325 51.4149 288.638 51.1553 289.03 50.9217C289.417 50.6918 289.751 50.5648 289.959 50.5011C290.146 50.4439 290.197 50.4483 290.029 50.4713C289.858 50.4945 289.552 50.525 289.045 50.5491L289.901 68.5288C293.058 68.3785 297.306 67.8903 300.829 64.3669L288.101 51.639ZM284.103 52.3168C279.811 55.5081 272.085 59.7368 266.507 61.8997L273.015 78.6822C279.981 75.9811 289.151 70.9938 294.843 66.7611L284.103 52.3168ZM274.753 62.8025L273.601 62.0345L263.617 77.0114L264.769 77.7794L274.753 62.8025ZM276.833 73.1782C279.057 68.1762 281.911 60.1724 283.197 55.314L265.797 50.7079C264.779 54.5535 262.258 61.6537 260.385 65.8677L276.833 73.1782ZM253.761 62.699H252.225V80.699H253.761V62.699ZM258.589 78.0629L266.653 69.9989L253.925 57.271L245.861 65.335L258.589 78.0629ZM254.376 70.4197L268.328 82.5797L280.154 69.0102L266.202 56.8502L254.376 70.4197ZM267.877 69.431C268.171 69.1376 268.514 68.8728 268.88 68.661C269.23 68.458 269.502 68.3619 269.611 68.3276C269.706 68.2979 269.671 68.3174 269.426 68.3583C269.182 68.3992 268.816 68.4473 268.268 68.4995L269.974 86.4184C272.695 86.1593 277.11 85.6543 280.605 82.1589L267.877 69.431ZM264.361 69.8208C255.829 75.1376 244.822 80.9486 234.901 83.948L240.11 101.178C252.204 97.5213 264.749 90.7883 273.881 85.0972L264.361 69.8208ZM237.505 83.563H235.585V101.563H237.505V83.563ZM241.007 99.7467C249.051 93.6757 257.545 82.5172 261.354 76.5308L246.168 66.8671C242.81 72.1447 235.687 81.2102 230.163 85.3792L241.007 99.7467Z" fill="white" mask="url(#path-1-outside-1_1_278)"/>
<mask id="path-3-outside-2_1_278" maskUnits="userSpaceOnUse" x="251.814" y="267.197" width="116" height="60" fill="black">
<rect fill="white" x="251.814" y="267.197" width="116" height="60"/>
<path d="M337.578 295.897L344.078 289.397L355.178 300.097C354.478 300.897 353.378 301.097 351.278 301.297C347.678 305.797 341.378 311.797 336.278 315.497L335.478 314.797C336.778 309.397 338.178 300.897 338.778 295.897H337.578ZM275.178 290.397C280.378 303.197 276.878 312.097 271.678 315.097C268.078 317.297 263.078 316.097 261.678 312.097C260.478 308.197 262.878 305.197 266.178 303.697C269.878 301.597 274.178 296.397 273.878 290.497L275.178 290.397ZM344.778 295.897V298.797H274.778V295.897H344.778ZM317.678 278.197C317.478 279.597 316.678 280.497 313.978 280.997V297.097H301.678V276.997L317.678 278.197Z"/>
</mask>
<path d="M337.578 295.897L344.078 289.397L355.178 300.097C354.478 300.897 353.378 301.097 351.278 301.297C347.678 305.797 341.378 311.797 336.278 315.497L335.478 314.797C336.778 309.397 338.178 300.897 338.778 295.897H337.578ZM275.178 290.397C280.378 303.197 276.878 312.097 271.678 315.097C268.078 317.297 263.078 316.097 261.678 312.097C260.478 308.197 262.878 305.197 266.178 303.697C269.878 301.597 274.178 296.397 273.878 290.497L275.178 290.397ZM344.778 295.897V298.797H274.778V295.897H344.778ZM317.678 278.197C317.478 279.597 316.678 280.497 313.978 280.997V297.097H301.678V276.997L317.678 278.197Z" fill="url(#paint1_linear_1_278)"/>
<path d="M337.578 295.897L331.214 289.533L315.85 304.897H337.578V295.897ZM344.078 289.397L350.324 282.918L343.962 276.785L337.714 283.033L344.078 289.397ZM355.178 300.097L361.951 306.024L367.599 299.57L361.424 293.618L355.178 300.097ZM351.278 301.297L350.425 292.338L346.631 292.699L344.25 295.675L351.278 301.297ZM336.278 315.497L330.351 322.27L335.753 326.997L341.563 322.782L336.278 315.497ZM335.478 314.797L326.728 312.691L325.454 317.985L329.551 321.57L335.478 314.797ZM338.778 295.897L347.714 296.97L348.923 286.897H338.778V295.897ZM275.178 290.397L283.516 287.01L281.042 280.92L274.488 281.424L275.178 290.397ZM271.678 315.097L267.181 307.302L267.082 307.358L266.985 307.418L271.678 315.097ZM261.678 312.097L253.076 314.744L253.127 314.908L253.183 315.07L261.678 312.097ZM266.178 303.697L269.902 311.891L270.27 311.724L270.62 311.524L266.178 303.697ZM273.878 290.497L273.188 281.524L264.444 282.196L264.89 290.954L273.878 290.497ZM344.778 295.897H353.778V286.897H344.778V295.897ZM344.778 298.797V307.797H353.778V298.797H344.778ZM274.778 298.797H265.778V307.797H274.778V298.797ZM274.778 295.897V286.897H265.778V295.897H274.778ZM317.678 278.197L326.588 279.47L327.949 269.942L318.351 269.223L317.678 278.197ZM313.978 280.997L312.339 272.148L304.978 273.511V280.997H313.978ZM313.978 297.097V306.097H322.978V297.097H313.978ZM301.678 297.097H292.678V306.097H301.678V297.097ZM301.678 276.997L302.351 268.023L292.678 267.297V276.997H301.678ZM343.942 302.261L350.442 295.761L337.714 283.033L331.214 289.533L343.942 302.261ZM337.832 295.877L348.932 306.577L361.424 293.618L350.324 282.918L337.832 295.877ZM348.405 294.171C348.907 293.597 349.49 293.131 350.092 292.786C350.658 292.462 351.118 292.314 351.326 292.256C351.52 292.201 351.577 292.203 351.383 292.231C351.194 292.259 350.904 292.292 350.425 292.338L352.131 310.257C353.127 310.162 354.68 310.009 356.18 309.589C357.948 309.094 360.128 308.107 361.951 306.024L348.405 294.171ZM344.25 295.675C341.176 299.518 335.469 304.965 330.993 308.213L341.563 322.782C347.287 318.63 354.18 312.077 358.306 306.92L344.25 295.675ZM342.205 308.724L341.405 308.024L329.551 321.57L330.351 322.27L342.205 308.724ZM344.228 316.904C345.631 311.076 347.084 302.216 347.714 296.97L329.842 294.825C329.272 299.578 327.925 307.718 326.728 312.691L344.228 316.904ZM338.778 286.897H337.578V304.897H338.778V286.897ZM266.84 293.785C268.912 298.885 268.957 302.478 268.517 304.587C268.296 305.646 267.956 306.341 267.679 306.754C267.398 307.171 267.189 307.297 267.181 307.302L276.176 322.893C286.869 316.724 289.604 301.996 283.516 287.01L266.84 293.785ZM266.985 307.418C267.36 307.188 267.795 307.12 268.28 307.256C268.553 307.332 268.923 307.498 269.299 307.831C269.695 308.183 270.004 308.641 270.173 309.124L253.183 315.07C256.905 325.703 269.048 327.252 276.371 322.777L266.985 307.418ZM270.28 309.451C270.331 309.617 270.402 309.984 270.34 310.479C270.278 310.968 270.112 311.374 269.94 311.658C269.639 312.154 269.459 312.092 269.902 311.891L262.454 295.504C259.597 296.803 256.567 298.99 254.541 302.337C252.369 305.926 251.71 310.306 253.076 314.744L270.28 309.451ZM270.62 311.524C273.788 309.726 276.826 306.875 279.067 303.439C281.334 299.962 283.135 295.332 282.866 290.04L264.89 290.954C264.921 291.563 264.722 292.483 263.99 293.606C263.23 294.77 262.268 295.568 261.736 295.87L270.62 311.524ZM274.568 299.471L275.868 299.371L274.488 281.424L273.188 281.524L274.568 299.471ZM335.778 295.897V298.797H353.778V295.897H335.778ZM344.778 289.797H274.778V307.797H344.778V289.797ZM283.778 298.797V295.897H265.778V298.797H283.778ZM274.778 304.897H344.778V286.897H274.778V304.897ZM308.768 276.925C308.817 276.586 308.952 275.912 309.354 275.113C309.78 274.265 310.375 273.538 311.05 272.983C312.225 272.016 313.122 272.003 312.339 272.148L315.617 289.847C317.534 289.492 320.181 288.778 322.481 286.887C325.215 284.639 326.259 281.768 326.588 279.47L308.768 276.925ZM304.978 280.997V297.097H322.978V280.997H304.978ZM313.978 288.097H301.678V306.097H313.978V288.097ZM310.678 297.097V276.997H292.678V297.097H310.678ZM301.005 285.972L317.005 287.172L318.351 269.223L302.351 268.023L301.005 285.972Z" fill="white" mask="url(#path-3-outside-2_1_278)"/>
<mask id="path-5-outside-3_1_278" maskUnits="userSpaceOnUse" x="103.349" y="252.197" width="115" height="114" fill="black">
<rect fill="white" x="103.349" y="252.197" width="115" height="114"/>
<path d="M115.512 307.397H187.812L195.012 298.297C195.012 298.297 203.112 304.397 208.112 308.697C207.812 309.797 206.712 310.297 205.212 310.297H116.312L115.512 307.397ZM155.712 289.997L171.512 291.497C171.312 292.997 170.312 293.797 168.112 294.197V341.597C168.112 349.897 165.912 354.797 150.412 356.197C149.812 352.197 149.112 349.497 146.812 347.597C144.512 345.697 141.612 344.297 134.712 343.197V341.897C134.712 341.897 150.312 342.897 153.112 342.897C155.112 342.897 155.712 342.197 155.712 340.697V289.997ZM183.212 271.897H182.012L189.112 265.197L200.612 275.297C199.812 276.197 198.612 276.497 196.412 276.697C187.712 282.397 175.112 289.497 164.212 293.597H162.712C170.112 287.997 179.112 277.597 183.212 271.897ZM125.712 271.897H191.312V274.697H126.612L125.712 271.897Z"/>
</mask>
<path d="M115.512 307.397H187.812L195.012 298.297C195.012 298.297 203.112 304.397 208.112 308.697C207.812 309.797 206.712 310.297 205.212 310.297H116.312L115.512 307.397ZM155.712 289.997L171.512 291.497C171.312 292.997 170.312 293.797 168.112 294.197V341.597C168.112 349.897 165.912 354.797 150.412 356.197C149.812 352.197 149.112 349.497 146.812 347.597C144.512 345.697 141.612 344.297 134.712 343.197V341.897C134.712 341.897 150.312 342.897 153.112 342.897C155.112 342.897 155.712 342.197 155.712 340.697V289.997ZM183.212 271.897H182.012L189.112 265.197L200.612 275.297C199.812 276.197 198.612 276.497 196.412 276.697C187.712 282.397 175.112 289.497 164.212 293.597H162.712C170.112 287.997 179.112 277.597 183.212 271.897ZM125.712 271.897H191.312V274.697H126.612L125.712 271.897Z" fill="url(#paint2_linear_1_278)"/>
<path d="M115.512 307.397V298.397H103.693L106.836 309.791L115.512 307.397ZM187.812 307.397V316.397H192.168L194.87 312.982L187.812 307.397ZM195.012 298.297L200.426 291.108L193.407 285.822L187.954 292.713L195.012 298.297ZM208.112 308.697L216.795 311.065L218.291 305.581L213.981 301.874L208.112 308.697ZM116.312 310.297L107.636 312.691L109.459 319.297H116.312V310.297ZM155.712 289.997L156.563 281.038L146.712 280.102V289.997H155.712ZM171.512 291.497L180.433 292.687L181.669 283.421L172.363 282.538L171.512 291.497ZM168.112 294.197L166.502 285.342L159.112 286.686V294.197H168.112ZM150.412 356.197L141.512 357.532L142.771 365.924L151.222 365.161L150.412 356.197ZM146.812 347.597L152.544 340.659L152.544 340.659L146.812 347.597ZM134.712 343.197H125.712V350.876L133.295 352.085L134.712 343.197ZM134.712 341.897L135.288 332.916L125.712 332.302V341.897H134.712ZM183.212 271.897L190.518 277.153L200.772 262.897H183.212V271.897ZM182.012 271.897L175.835 265.352L159.362 280.897H182.012V271.897ZM189.112 265.197L195.051 258.435L188.895 253.028L182.935 258.652L189.112 265.197ZM200.612 275.297L207.339 281.277L213.354 274.51L206.551 268.535L200.612 275.297ZM196.412 276.697L195.597 267.734L193.36 267.938L191.48 269.169L196.412 276.697ZM164.212 293.597V302.597H165.849L167.381 302.021L164.212 293.597ZM162.712 293.597L157.281 286.421L135.905 302.597H162.712V293.597ZM125.712 271.897V262.897H113.366L117.144 274.651L125.712 271.897ZM191.312 271.897H200.312V262.897H191.312V271.897ZM191.312 274.697V283.697H200.312V274.697H191.312ZM126.612 274.697L118.044 277.451L120.052 283.697H126.612V274.697ZM115.512 316.397H187.812V298.397H115.512V316.397ZM194.87 312.982L202.07 303.882L187.954 292.713L180.754 301.813L194.87 312.982ZM195.012 298.297C189.598 305.487 189.598 305.487 189.598 305.486C189.598 305.486 189.598 305.486 189.598 305.486C189.598 305.487 189.598 305.487 189.598 305.487C189.599 305.487 189.6 305.488 189.602 305.489C189.605 305.492 189.61 305.495 189.617 305.501C189.63 305.511 189.652 305.527 189.68 305.549C189.737 305.592 189.823 305.657 189.935 305.742C190.159 305.911 190.487 306.16 190.896 306.473C191.716 307.098 192.862 307.977 194.159 308.987C196.786 311.032 199.918 313.521 202.244 315.521L213.981 301.874C211.306 299.574 207.888 296.863 205.215 294.782C203.863 293.73 202.67 292.815 201.816 292.163C201.388 291.836 201.044 291.575 200.805 291.394C200.685 291.304 200.592 291.233 200.528 291.185C200.496 291.161 200.472 291.142 200.455 291.129C200.446 291.123 200.439 291.118 200.435 291.114C200.432 291.112 200.43 291.111 200.429 291.11C200.428 291.109 200.428 291.109 200.427 291.109C200.427 291.109 200.427 291.108 200.427 291.108C200.427 291.108 200.426 291.108 195.012 298.297ZM199.429 306.329C200.005 304.219 201.456 302.714 202.929 301.941C204.152 301.299 205.088 301.297 205.212 301.297V319.297C207.953 319.297 214.834 318.257 216.795 311.065L199.429 306.329ZM205.212 301.297H116.312V319.297H205.212V301.297ZM124.988 307.904L124.188 305.004L106.836 309.791L107.636 312.691L124.988 307.904ZM154.862 298.957L170.662 300.457L172.363 282.538L156.563 281.038L154.862 298.957ZM162.591 290.308C162.658 289.807 162.833 289.068 163.269 288.252C163.719 287.411 164.32 286.725 164.959 286.216C166.097 285.311 166.991 285.254 166.502 285.342L169.722 303.052C171.433 302.741 173.927 302.083 176.165 300.303C178.778 298.225 180.069 295.418 180.433 292.687L162.591 290.308ZM159.112 294.197V341.597H177.112V294.197H159.112ZM159.112 341.597C159.112 343.369 158.982 344.306 158.842 344.821C158.783 345.038 158.74 345.11 158.745 345.099C158.757 345.079 158.777 345.056 158.776 345.057C158.643 345.186 156.967 346.569 149.603 347.234L151.222 365.161C159.357 364.426 166.531 362.658 171.374 357.913C176.621 352.771 177.112 346.18 177.112 341.597H159.112ZM159.313 354.862C158.727 350.957 157.751 344.96 152.544 340.659L141.08 354.536C141.002 354.471 140.906 354.37 140.831 354.259C140.764 354.161 140.777 354.149 140.838 354.311C140.905 354.487 141.008 354.81 141.13 355.367C141.253 355.927 141.375 356.621 141.512 357.532L159.313 354.862ZM152.544 340.659C148.529 337.342 143.868 335.543 136.129 334.31L133.295 352.085C136.401 352.58 138.174 353.079 139.241 353.492C140.168 353.85 140.636 354.169 141.08 354.536L152.544 340.659ZM143.712 343.197V341.897H125.712V343.197H143.712ZM134.712 341.897C134.136 350.879 134.137 350.879 134.137 350.879C134.137 350.879 134.137 350.879 134.137 350.879C134.138 350.879 134.139 350.879 134.14 350.879C134.142 350.879 134.145 350.879 134.149 350.88C134.156 350.88 134.168 350.881 134.183 350.882C134.213 350.884 134.258 350.887 134.316 350.89C134.432 350.898 134.602 350.909 134.819 350.922C135.254 350.95 135.878 350.989 136.634 351.036C138.147 351.13 140.195 351.256 142.334 351.382C146.416 351.622 151.374 351.897 153.112 351.897V333.897C152.051 333.897 147.808 333.673 143.391 333.413C141.279 333.289 139.252 333.164 137.753 333.071C137.003 333.024 136.386 332.985 135.956 332.958C135.742 332.945 135.574 332.934 135.46 332.927C135.404 332.923 135.36 332.92 135.331 332.919C135.317 332.918 135.306 332.917 135.298 332.916C135.295 332.916 135.292 332.916 135.29 332.916C135.289 332.916 135.289 332.916 135.288 332.916C135.288 332.916 135.288 332.916 135.288 332.916C135.288 332.916 135.288 332.916 134.712 341.897ZM153.112 351.897C154.731 351.897 158.253 351.705 161.206 349.029C164.43 346.107 164.712 342.354 164.712 340.697H146.712C146.712 340.541 146.695 337.888 149.119 335.691C150.225 334.688 151.358 334.249 152.066 334.062C152.414 333.971 152.685 333.932 152.848 333.915C153.011 333.897 153.106 333.897 153.112 333.897V351.897ZM164.712 340.697V289.997H146.712V340.697H164.712ZM183.212 262.897H182.012V280.897H183.212V262.897ZM188.189 278.443L195.289 271.743L182.935 258.652L175.835 265.352L188.189 278.443ZM183.173 271.96L194.673 282.06L206.551 268.535L195.051 258.435L183.173 271.96ZM193.886 269.318C194.285 268.869 194.752 268.482 195.25 268.179C195.727 267.889 196.123 267.742 196.335 267.675C196.531 267.613 196.598 267.612 196.446 267.636C196.296 267.661 196.035 267.694 195.597 267.734L197.227 285.66C199.2 285.481 203.918 285.125 207.339 281.277L193.886 269.318ZM191.48 269.169C183.09 274.666 171.101 281.39 161.044 285.174L167.381 302.021C179.123 297.604 192.335 290.129 201.344 284.225L191.48 269.169ZM164.212 284.597H162.712V302.597H164.212V284.597ZM168.143 300.774C176.523 294.433 186.127 283.258 190.518 277.153L175.906 266.642C172.097 271.937 163.702 281.562 157.281 286.421L168.143 300.774ZM125.712 280.897H191.312V262.897H125.712V280.897ZM182.312 271.897V274.697H200.312V271.897H182.312ZM191.312 265.697H126.612V283.697H191.312V265.697ZM135.18 271.943L134.28 269.143L117.144 274.651L118.044 277.451L135.18 271.943Z" fill="white" mask="url(#path-5-outside-3_1_278)"/>
<path d="M231.763 241.025C233.52 242.782 236.37 242.782 238.127 241.025L266.765 212.387C268.522 210.63 268.522 207.781 266.765 206.023C265.008 204.266 262.158 204.266 260.401 206.023L234.945 231.479L209.489 206.023C207.732 204.266 204.883 204.266 203.125 206.023C201.368 207.781 201.368 210.63 203.125 212.387L231.763 241.025ZM230.445 182.724L230.445 237.843L239.445 237.843L239.445 182.724L230.445 182.724Z" fill="white"/>
<defs>
<linearGradient id="paint0_linear_1_278" x1="234.945" y1="0.458954" x2="234.945" y2="172.182" gradientUnits="userSpaceOnUse">
<stop stop-color="#11A4FF"/>
<stop offset="1" stop-color="#0A6299"/>
</linearGradient>
<linearGradient id="paint1_linear_1_278" x1="308.178" y1="218.197" x2="308.178" y2="389.92" gradientUnits="userSpaceOnUse">
<stop/>
<stop offset="1" stop-color="#666666"/>
</linearGradient>
<linearGradient id="paint2_linear_1_278" x1="161.712" y1="218.197" x2="161.712" y2="389.92" gradientUnits="userSpaceOnUse">
<stop/>
<stop offset="1" stop-color="#666666"/>
</linearGradient>
</defs>
</svg>
